<?xml version="1.0" standalone="no"?>
<!DOCTYPE svg PUBLIC "-//W3C//DTD SVG 20010904//EN"
 "http://www.w3.org/TR/2001/REC-SVG-20010904/DTD/svg10.dtd">
<svg version="1.0" xmlns="http://www.w3.org/2000/svg"
 width="96.000000pt" height="47.000000pt" viewBox="0 0 96.000000 47.000000"
 preserveAspectRatio="xMidYMid meet">
<metadata>
Created by potrace 1.10, written by Peter Selinger 2001-2011
</metadata>
<g transform="translate(0.000000,47.000000) scale(0.100000,-0.100000)"
fill="#000000" stroke="none">
<path d="M230 443 c-22 -3 -35 -23 -83 -118 -53 -107 -59 -115 -86 -115 -20 0
-30 -6 -34 -20 -4 -16 0 -20 19 -20 l24 0 -20 -40 c-26 -50 -25 -58 3 -53 15
3 28 18 40 48 18 44 39 55 102 55 21 0 22 -3 17 -45 -4 -43 -3 -45 21 -45 l26
0 1 180 c0 99 -1 179 -2 179 -2 -1 -14 -4 -28 -6z m-12 -218 c-2 -2 -22 -6
-45 -10 l-42 -7 42 90 42 90 3 -80 c2 -44 2 -82 0 -83z"/>
<path d="M501 393 c-6 -12 -6 -25 -1 -34 12 -19 45 1 45 27 0 25 -31 30 -44 7z"/>
<path d="M820 328 c-19 -18 -23 -19 -17 -4 6 14 2 17 -15 14 -17 -2 -25 -14
-34 -51 -14 -57 -39 -97 -59 -97 -19 0 -19 14 0 76 19 64 19 73 -4 67 -12 -3
-24 -24 -36 -64 -19 -60 -46 -96 -64 -84 -15 9 -14 23 8 88 18 56 18 57 -1 57
-20 0 -31 -20 -48 -87 -6 -24 -21 -51 -37 -63 -14 -11 -27 -19 -29 -17 -2 1 8
38 21 82 14 43 24 80 22 81 -1 1 -12 -2 -24 -6 -15 -6 -23 -21 -28 -50 -7 -39
-47 -100 -66 -100 -14 0 -10 36 10 90 l19 50 -38 0 c-21 0 -40 5 -42 12 -7 19
-38 0 -38 -23 0 -12 -12 -48 -26 -80 -25 -56 -27 -78 -6 -65 5 3 22 32 38 66
19 40 34 60 46 60 22 0 22 1 3 -43 -31 -75 -7 -121 48 -92 26 13 27 13 17 -6
-6 -10 -17 -19 -25 -19 -49 0 -99 -56 -75 -85 30 -36 102 -4 116 51 3 11 25
37 48 56 40 34 43 35 54 17 15 -24 34 -24 63 0 20 16 25 17 34 5 12 -16 105
-9 105 9 0 26 55 127 72 133 29 9 31 1 11 -55 -13 -39 -15 -55 -7 -69 18 -28
47 -25 78 7 35 36 26 64 -10 30 -30 -28 -42 -18 -25 24 21 52 24 76 11 92 -18
21 -42 19 -70 -7z m-396 -240 c-13 -23 -37 -48 -46 -48 -16 0 -7 29 14 44 27
19 42 21 32 4z"/>
</g>
</svg>
